<svg width="800" height="600" xmlns="http://www.w3.org/2000/svg" stroke="null" style="vector-effect: non-scaling-stroke;">
 <!-- Created with Method Draw - http://github.com/duopixel/Method-Draw/ -->
 <defs stroke="null" style="vector-effect: non-scaling-stroke;">
  <radialGradient stroke="null" style="vector-effect: non-scaling-stroke;" r="0.67629" cy="0.5" cx="0.5" spreadMethod="pad" id="svg_5">
   <stop stroke="null" style="vector-effect: non-scaling-stroke;" offset="0" stop-color="#000000"/>
   <stop stroke="null" style="vector-effect: non-scaling-stroke;" offset="1" stop-color="#ffffff"/>
  </radialGradient>
  <linearGradient stroke="null" style="vector-effect: non-scaling-stroke;" spreadMethod="pad" y2="0.68281" x2="0.08203" y1="0" x1="0" id="svg_8">
   <stop stroke="null" style="vector-effect: non-scaling-stroke;" offset="0.31641" stop-color="#005fbf"/>
   <stop stroke="null" style="vector-effect: non-scaling-stroke;" offset="1" stop-color="#ffa040"/>
  </linearGradient>
 </defs>
 <g stroke="null">
  <title stroke="null">background</title>
  <rect stroke="null" fill="url(#svg_8)" id="canvas_background" height="602" width="802" y="-1" x="-1"/>
  <g stroke="null" style="vector-effect: non-scaling-stroke;" display="none" overflow="visible" y="0" x="0" height="100%" width="100%" id="canvasGrid">
   <rect fill="url(#gridpattern)" stroke-width="0" y="0" x="0" height="100%" width="100%"/>
  </g>
 </g>
 <g stroke="null">
  <title stroke="null">Layer 1</title>
  <path stroke="#000" style="vector-effect: non-scaling-stroke;" transform="rotate(-50 391.88409423828136,324.08374023437506) " id="svg_9" d="m394.3841,251.10537l-0.5,266.83816l-6,19.66693l0,-354.00482l-12,12.64303l18,-85.69165l14,85.69165l-10,-12.64303l-3.5,67.49973z" stroke-width="1.5" fill="url(#svg_5)"/>
  <path stroke="#000" style="vector-effect: non-scaling-stroke;" transform="rotate(49 412.76287841796875,324.8775939941407) " id="svg_10" d="m415.26287,253.23973l-0.5,261.93672l-6,19.30568l0,-347.50226l-12,12.41079l18,-84.11761l14,84.11761l-10,-12.41079l-3.5,66.25986z" stroke-width="1.5" fill="url(#svg_5)"/>
  <path stroke="#000" id="svg_11" d="m234.5,166.05" opacity="0.5" fill-opacity="null" stroke-opacity="null" stroke-width="1.5" fill="url(#svg_5)"/>
  <text stroke="#000" transform="matrix(0.8244144351313551,0,0,1,12.546800717351971,0) " xml:space="preserve" text-anchor="start" font-family="Euphoria, sans-serif" font-size="92" id="svg_15" y="131.59865" x="228.99866" fill-opacity="null" stroke-opacity="null" stroke-width="0" fill="#000000">La cuina D'Ahab</text>
  <path stroke="#000" id="svg_18" d="m590.73445,239.21487c3.58868,1.68669 6.86343,3.93534 10.16434,5.93959c1.12494,0.68249 2.40292,1.76733 3.44545,2.09901c2.65669,0.8421 6.81372,-0.63095 10.20031,-0.78474c8.4645,-0.38156 13.94465,0.40983 20.90292,1.74322c3.25643,0.62264 6.62798,1.20621 9.48611,2.27109c2.44151,0.91027 5.24077,2.94444 7.97267,4.65524c4.31728,2.7042 7.25781,5.25045 10.62412,8.51078c5.62665,5.4458 9.1689,12.30147 13.28604,19.83381c1.79794,3.28776 4.38726,8.18657 4.5161,12.07702c2.38003,4.58458 5.99618,7.38354 6.90333,14.09457c-1.26817,3.92453 -4.55469,0.43477 -6.53511,-0.87203c-1.6377,-1.08401 -3.39967,-2.37916 -4.85097,-2.89872c-7.54297,-2.70253 -18.0546,1.16048 -25.39875,-1.31594c-2.60305,-0.87701 -4.85816,-2.64767 -7.44421,-3.39749c-2.4559,-0.71408 -4.33428,0.55032 -6.08513,1.51129c-0.93004,0.51208 -1.90978,1.20537 -2.75479,1.75652c-5.47165,3.59368 -10.94068,7.40349 -18.28678,8.8383c-5.89611,1.14968 -11.01851,-1.0441 -15.81127,-2.22953c-1.2165,-0.30176 -2.78815,-0.19203 -3.71099,-1.51212c3.82544,-1.09814 7.00012,-2.97104 10.99496,-4.9703c5.24731,-2.62356 9.32325,-4.39837 11.30628,-9.66544c-2.34864,-0.78142 -5.06876,-0.202 -7.51354,0.34249c-2.66977,0.59188 -5.31926,1.14802 -7.88111,1.68337c-10.81706,2.26361 -18.96371,6.06345 -27.19799,10.99302c-4.00007,2.39163 -7.6862,5.72428 -11.07672,8.52158c-6.94388,5.73592 -12.87138,12.85844 -18.46206,20.61772c-2.53046,3.51304 -4.7908,7.91224 -7.53512,12.10529c-1.1995,1.833 -2.40554,3.87798 -3.68744,6.14159c-1.22501,2.15055 -3.09423,4.78658 -3.35323,6.6678c-0.2917,2.0774 0.5762,4.35514 1.0131,6.6254c0.75541,3.94365 1.31265,8.1741 1.05953,12.22333c-0.33094,5.23714 -1.25182,10.33796 -3.18253,14.30572c-0.83782,-0.94684 -1.17988,-2.61358 -1.61154,-4.13984c-2.11645,-3.43823 -4.93207,-6.8723 -5.00205,-12.59409c-5.781,3.79735 -17.01011,3.47896 -23.75189,3.38004c-2.02685,-0.02993 -4.09164,0.24274 -5.77054,-0.75897c3.54094,-2.6086 6.14007,-5.90966 9.21795,-9.27972c4.65672,-5.09167 8.50833,-9.38114 15.37306,-12.10529c2.22502,-0.88283 4.77248,-1.36083 5.9916,-2.99681c0.93723,-1.25193 1.22239,-4.02512 1.69787,-6.69606c1.27864,-7.22144 2.94119,-14.88347 4.42454,-20.96105c4.45135,-18.26849 11.24546,-34.50447 20.28486,-47.11352c4.58085,-6.3943 10.05119,-11.60152 15.94927,-17.39148c1.00787,-2.0084 2.89606,-4.71759 3.28587,-7.78007c0.39896,-3.15309 -0.32048,-5.92047 -1.85353,-8.0386c-3.35389,-3.1107 -8.62344,-3.45485 -10.90209,-8.11092c2.97912,-2.72581 6.67572,-3.52468 10.30299,-3.97025c7.83598,-0.96347 15.17751,-0.2153 21.2561,2.64517z" fill-opacity="null" stroke-opacity="null" stroke-width="0" fill="#000000"/>
  <path stroke="#000" id="svg_19" d="m215.17183,249.21495c-3.49443,1.68669 -6.68317,3.93534 -9.89738,5.93958c-1.09539,0.68249 -2.33981,1.76733 -3.35496,2.09902c-2.58691,0.8421 -6.63477,-0.63095 -9.9324,-0.78474c-8.24219,-0.38157 -13.57841,0.40982 -20.35392,1.74322c-3.17091,0.62264 -6.4539,1.2062 -9.23696,2.27109c-2.37738,0.91026 -5.10312,2.94444 -7.76327,4.65524c-4.20389,2.70419 -7.06719,5.25044 -10.34508,8.51077c-5.47888,5.4458 -8.92808,12.30148 -12.9371,19.83382c-1.75071,3.28776 -4.27202,8.18657 -4.39749,12.07702c-2.31752,4.58458 -5.83869,7.38354 -6.72202,14.09457c1.23487,3.92453 4.43507,0.43477 6.36347,-0.87203c1.59469,-1.084 3.31038,-2.37916 4.72356,-2.89871c7.34486,-2.70254 17.58041,1.16048 24.73166,-1.31594c2.53468,-0.87701 4.73056,-2.64767 7.24869,-3.39749c2.39139,-0.71409 4.22044,0.55031 5.92531,1.51129c0.9056,0.51207 1.85962,1.20537 2.68244,1.75652c5.32793,3.59368 10.65332,7.40349 17.80649,8.8383c5.74126,1.14968 10.72911,-1.0441 15.396,-2.22953c1.18455,-0.30175 2.71491,-0.19202 3.61352,-1.51212c-3.72498,-1.09813 -6.81628,-2.97104 -10.70619,-4.9703c-5.10949,-2.62356 -9.07838,-4.39837 -11.00933,-9.66544c2.28695,-0.78141 4.93563,-0.202 7.3162,0.3425c2.59965,0.59188 5.17955,1.14801 7.67412,1.68336c10.53296,2.26361 18.46564,6.06345 26.48365,10.99302c3.89501,2.39163 7.48434,5.72428 10.7858,8.52158c6.76149,5.73592 12.53332,12.85844 17.97716,20.61772c2.464,3.51305 4.66497,7.91225 7.33722,12.10529c1.16799,1.833 2.34235,3.87798 3.59059,6.14159c1.19283,2.15056 3.01296,4.78659 3.26516,6.6678c0.28404,2.0774 -0.56107,4.35514 -0.98649,6.6254c-0.73557,3.94366 -1.27816,8.17411 -1.0317,12.22333c0.32225,5.23715 1.21894,10.33796 3.09894,14.30572c0.81581,-0.94684 1.14888,-2.61358 1.5692,-4.13984c2.06087,-3.43822 4.80253,-6.87229 4.87067,-12.59408c5.62917,3.79734 16.56335,3.47896 23.12806,3.38003c1.97363,-0.02992 3.98418,0.24274 5.61898,-0.75897c-3.44793,-2.60859 -5.97879,-5.90966 -8.97585,-9.27972c-4.53441,-5.09167 -8.28485,-9.38114 -14.96929,-12.10528c-2.16658,-0.88284 -4.64714,-1.36083 -5.83423,-2.99681c-0.91261,-1.25193 -1.19028,-4.02512 -1.65329,-6.69607c-1.24505,-7.22144 -2.86394,-14.88346 -4.30832,-20.96104c-4.33445,-18.2685 -10.9501,-34.50447 -19.75209,-47.11352c-4.46054,-6.39431 -9.7872,-11.60153 -15.53037,-17.39148c-0.98139,-2.0084 -2.82,-4.71759 -3.19956,-7.78007c-0.38848,-3.15309 0.31205,-5.92047 1.80485,-8.0386c3.26579,-3.1107 8.39694,-3.45485 10.61575,-8.11092c-2.90088,-2.72581 -6.5004,-3.52469 -10.0324,-3.97026c-7.63017,-0.96347 -14.77887,-0.2153 -20.69781,2.64518z" fill-opacity="null" stroke-opacity="null" stroke-width="0" fill="#000000"/>
  <path id="svg_20" d="m640.54221,423.73064c-0.02743,0.01014 -0.05247,0.02367 -0.0777,0.03572c-0.0086,0.0041 -0.01837,0.01063 -0.02634,0.01262c-0.02031,0.00506 -0.05209,-0.00379 -0.07798,-0.00472c-0.06471,-0.00229 -0.1066,0.00246 -0.1598,0.01048c-0.02489,0.00374 -0.05067,0.00725 -0.07252,0.01366c-0.01866,0.00547 -0.04006,0.01771 -0.06095,0.028c-0.033,0.01626 -0.05548,0.03158 -0.08122,0.05119c-0.04301,0.03275 -0.07009,0.07399 -0.10157,0.11929c-0.01374,0.01977 -0.03354,0.04924 -0.03452,0.07264c-0.01819,0.02757 -0.04584,0.04441 -0.05277,0.08477c0.00969,0.0236 0.03482,0.00261 0.04996,-0.00524c0.01252,-0.00652 0.02599,-0.01431 0.03708,-0.01743c0.05766,-0.01625 0.13802,0.00698 0.19417,-0.00791c0.0199,-0.00527 0.03714,-0.01592 0.05691,-0.02043c0.01877,-0.00429 0.03313,0.00331 0.04652,0.00909c0.00711,0.00308 0.0146,0.00725 0.02106,0.01056c0.04183,0.02161 0.08364,0.04453 0.1398,0.05316c0.04507,0.00691 0.08423,-0.00628 0.12087,-0.01341c0.0093,-0.00181 0.02131,-0.00115 0.02837,-0.00909c-0.02924,-0.0066 -0.05351,-0.01787 -0.08405,-0.02989c-0.04011,-0.01578 -0.07127,-0.02645 -0.08643,-0.05813c0.01795,-0.0047 0.03875,-0.00121 0.05744,0.00206c0.02041,0.00356 0.04066,0.0069 0.06025,0.01012c0.08269,0.01361 0.14497,0.03647 0.20792,0.06612c0.03058,0.01438 0.05876,0.03443 0.08468,0.05125c0.05308,0.0345 0.0984,0.07734 0.14114,0.12401c0.01934,0.02113 0.03662,0.04759 0.0576,0.07281c0.00917,0.01102 0.01839,0.02332 0.02819,0.03694c0.00936,0.01293 0.02365,0.02879 0.02563,0.0401c0.00223,0.01249 -0.0044,0.02619 -0.00774,0.03985c-0.00577,0.02372 -0.01003,0.04916 -0.0081,0.07352c0.00253,0.0315 0.00957,0.06218 0.02433,0.08604c0.0064,-0.00569 0.00902,-0.01572 0.01232,-0.0249c0.01618,-0.02068 0.0377,-0.04133 0.03824,-0.07575c0.04419,0.02284 0.13004,0.02092 0.18158,0.02033c0.01549,-0.00018 0.03128,0.00146 0.04411,-0.00456c-0.02707,-0.01569 -0.04694,-0.03554 -0.07047,-0.05581c-0.0356,-0.03062 -0.06504,-0.05642 -0.11752,-0.07281c-0.01701,-0.00531 -0.03648,-0.00818 -0.0458,-0.01802c-0.00716,-0.00753 -0.00934,-0.02421 -0.01298,-0.04027c-0.00977,-0.04343 -0.02248,-0.08952 -0.03382,-0.12607c-0.03403,-0.10988 -0.08597,-0.20753 -0.15507,-0.28337c-0.03502,-0.03846 -0.07684,-0.06978 -0.12193,-0.1046c-0.0077,-0.01208 -0.02214,-0.02837 -0.02512,-0.04679c-0.00305,-0.01896 0.00245,-0.03561 0.01417,-0.04835c0.02564,-0.01871 0.06592,-0.02078 0.08334,-0.04878c-0.02277,-0.01639 -0.05103,-0.0212 -0.07876,-0.02388c-0.0599,-0.00579 -0.11603,-0.00129 -0.1625,0.01591z" fill-opacity="null" stroke-opacity="null" stroke-width="0" stroke="#000" fill="#000000"/>
  <path id="svg_21" d="m164.92842,300.34964c-0.02743,0.01014 -0.05247,0.02367 -0.0777,0.03572c-0.0086,0.0041 -0.01837,0.01063 -0.02634,0.01262c-0.02031,0.00506 -0.05209,-0.00379 -0.07798,-0.00472c-0.06471,-0.00229 -0.1066,0.00246 -0.1598,0.01048c-0.02489,0.00374 -0.05067,0.00725 -0.07252,0.01366c-0.01866,0.00547 -0.04006,0.01771 -0.06095,0.028c-0.033,0.01626 -0.05548,0.03158 -0.08122,0.05119c-0.04301,0.03275 -0.07009,0.07399 -0.10157,0.11929c-0.01374,0.01977 -0.03354,0.04924 -0.03452,0.07264c-0.01819,0.02757 -0.04584,0.04441 -0.05277,0.08477c0.00969,0.0236 0.03482,0.00261 0.04996,-0.00524c0.01252,-0.00652 0.02599,-0.01431 0.03708,-0.01743c0.05766,-0.01625 0.13802,0.00698 0.19417,-0.00791c0.0199,-0.00527 0.03714,-0.01592 0.05691,-0.02043c0.01877,-0.00429 0.03313,0.00331 0.04652,0.00909c0.00711,0.00308 0.0146,0.00725 0.02106,0.01056c0.04183,0.02161 0.08364,0.04453 0.1398,0.05316c0.04507,0.00691 0.08423,-0.00628 0.12087,-0.01341c0.0093,-0.00181 0.02131,-0.00115 0.02837,-0.00909c-0.02924,-0.0066 -0.05351,-0.01787 -0.08405,-0.02989c-0.04011,-0.01578 -0.07127,-0.02645 -0.08643,-0.05813c0.01795,-0.0047 0.03875,-0.00121 0.05744,0.00206c0.02041,0.00356 0.04066,0.0069 0.06025,0.01012c0.08269,0.01361 0.14497,0.03647 0.20792,0.06612c0.03058,0.01438 0.05876,0.03443 0.08468,0.05125c0.05308,0.0345 0.0984,0.07734 0.14114,0.12401c0.01934,0.02113 0.03662,0.04759 0.0576,0.07281c0.00917,0.01102 0.01839,0.02332 0.02819,0.03694c0.00936,0.01293 0.02365,0.02879 0.02563,0.0401c0.00223,0.01249 -0.0044,0.02619 -0.00774,0.03985c-0.00577,0.02372 -0.01003,0.04916 -0.0081,0.07352c0.00253,0.0315 0.00957,0.06218 0.02433,0.08604c0.0064,-0.00569 0.00902,-0.01572 0.01232,-0.0249c0.01618,-0.02068 0.0377,-0.04133 0.03824,-0.07575c0.04419,0.02284 0.13004,0.02092 0.18158,0.02033c0.01549,-0.00018 0.03128,0.00146 0.04411,-0.00456c-0.02707,-0.01569 -0.04694,-0.03554 -0.07047,-0.05581c-0.0356,-0.03062 -0.06504,-0.05642 -0.11752,-0.07281c-0.01701,-0.00531 -0.03648,-0.00818 -0.0458,-0.01802c-0.00716,-0.00753 -0.00934,-0.02421 -0.01298,-0.04027c-0.00977,-0.04343 -0.02248,-0.08952 -0.03382,-0.12607c-0.03403,-0.10988 -0.08597,-0.20753 -0.15507,-0.28337c-0.03502,-0.03846 -0.07684,-0.06978 -0.12193,-0.1046c-0.0077,-0.01208 -0.02214,-0.02837 -0.02512,-0.04679c-0.00305,-0.01896 0.00245,-0.03561 0.01417,-0.04835c0.02564,-0.01871 0.06592,-0.02078 0.08334,-0.04878c-0.02277,-0.01639 -0.05103,-0.0212 -0.07876,-0.02388c-0.0599,-0.00579 -0.11603,-0.00129 -0.1625,0.01591z" fill-opacity="null" stroke-opacity="null" stroke-width="0" stroke="#000" fill="#000000"/>
  <path id="svg_22" d="m149.0083,401.84046c-0.02743,0.01014 -0.05247,0.02367 -0.0777,0.03572c-0.0086,0.0041 -0.01837,0.01063 -0.02634,0.01262c-0.02031,0.00506 -0.05209,-0.00379 -0.07798,-0.00472c-0.06471,-0.00229 -0.1066,0.00246 -0.1598,0.01048c-0.02489,0.00374 -0.05067,0.00725 -0.07252,0.01366c-0.01866,0.00547 -0.04006,0.01771 -0.06095,0.028c-0.033,0.01626 -0.05548,0.03158 -0.08122,0.05119c-0.04301,0.03275 -0.07009,0.07399 -0.10157,0.11929c-0.01374,0.01977 -0.03354,0.04924 -0.03452,0.07264c-0.01819,0.02757 -0.04584,0.04441 -0.05277,0.08477c0.00969,0.0236 0.03482,0.00261 0.04996,-0.00524c0.01252,-0.00652 0.02599,-0.01431 0.03708,-0.01743c0.05766,-0.01625 0.13802,0.00698 0.19417,-0.00791c0.0199,-0.00527 0.03714,-0.01592 0.05691,-0.02043c0.01877,-0.00429 0.03313,0.00331 0.04652,0.00909c0.00711,0.00308 0.0146,0.00725 0.02106,0.01056c0.04183,0.02161 0.08364,0.04453 0.1398,0.05316c0.04507,0.00691 0.08423,-0.00628 0.12087,-0.01341c0.0093,-0.00181 0.02131,-0.00115 0.02837,-0.00909c-0.02924,-0.0066 -0.05351,-0.01787 -0.08405,-0.02989c-0.04011,-0.01578 -0.07127,-0.02645 -0.08643,-0.05813c0.01795,-0.0047 0.03875,-0.00121 0.05744,0.00206c0.02041,0.00356 0.04066,0.0069 0.06025,0.01012c0.08269,0.01361 0.14497,0.03647 0.20792,0.06612c0.03058,0.01438 0.05876,0.03443 0.08468,0.05125c0.05308,0.0345 0.0984,0.07734 0.14114,0.12401c0.01934,0.02113 0.03662,0.04759 0.0576,0.07281c0.00917,0.01102 0.01839,0.02332 0.02819,0.03694c0.00936,0.01293 0.02365,0.02879 0.02563,0.0401c0.00223,0.01249 -0.0044,0.02619 -0.00774,0.03985c-0.00577,0.02372 -0.01003,0.04916 -0.0081,0.07352c0.00253,0.0315 0.00957,0.06218 0.02433,0.08604c0.0064,-0.00569 0.00902,-0.01572 0.01232,-0.0249c0.01618,-0.02068 0.0377,-0.04133 0.03824,-0.07575c0.04419,0.02284 0.13004,0.02092 0.18158,0.02033c0.01549,-0.00018 0.03128,0.00146 0.04411,-0.00456c-0.02707,-0.01569 -0.04694,-0.03554 -0.07047,-0.05581c-0.0356,-0.03062 -0.06504,-0.05642 -0.11752,-0.07281c-0.01701,-0.00531 -0.03648,-0.00818 -0.0458,-0.01802c-0.00716,-0.00753 -0.00934,-0.02421 -0.01298,-0.04027c-0.00977,-0.04343 -0.02248,-0.08952 -0.03382,-0.12607c-0.03403,-0.10988 -0.08597,-0.20753 -0.15507,-0.28337c-0.03502,-0.03846 -0.07684,-0.06978 -0.12193,-0.1046c-0.0077,-0.01208 -0.02214,-0.02837 -0.02512,-0.04679c-0.00305,-0.01896 0.00245,-0.03561 0.01417,-0.04835c0.02564,-0.01871 0.06592,-0.02078 0.08334,-0.04878c-0.02277,-0.01639 -0.05103,-0.0212 -0.07876,-0.02388c-0.0599,-0.00579 -0.11603,-0.00129 -0.1625,0.01591z" fill-opacity="null" stroke-opacity="null" stroke-width="0" stroke="#000" fill="#000000"/>
 </g>
</svg>